<?xml version="1.0" encoding="utf-8"?>
<!-- Generator: Adobe Illustrator 26.1.0, SVG Export Plug-In . SVG Version: 6.00 Build 0)  -->
<svg version="1.1" id="Layer_1" xmlns="http://www.w3.org/2000/svg" xmlns:xlink="http://www.w3.org/1999/xlink" x="0px" y="0px"
	 width="1024px" height="1024px" viewBox="0 0 1024 1024" style="enable-background:new 0 0 1024 1024;" xml:space="preserve">
<style type="text/css">
	.st0{fill:#FFFFFF;}
	.st1{fill:url(#SVGID_1_);}
	.st2{fill:url(#SVGID_00000005233972553957109810000009899389509277789568_);}
	.st3{fill:url(#SVGID_00000170244018350813409420000017957203152598366593_);}
	.st4{fill:url(#SVGID_00000183209195449510527470000013233252758536710843_);}
	.st5{fill:url(#SVGID_00000087375203225420719460000001344240584078147995_);}
	.st6{fill:url(#SVGID_00000023251090667712043220000004595253622022598809_);}
	.st7{fill:url(#SVGID_00000144325272192847336530000002841093109612702391_);}
	.st8{fill:#15104B;}
	.st9{fill:url(#SVGID_00000154404424788502443950000009407199786909621387_);}
	.st10{fill:url(#SVGID_00000027581217502395559380000006686170134011461027_);}
	.st11{fill:url(#SVGID_00000065056190228954554890000007511384112236833459_);}
	.st12{fill:url(#SVGID_00000103945947300885132020000003182017385646262914_);}
	.st13{fill:url(#SVGID_00000030475320998573556840000007085818270556020904_);}
	.st14{fill:url(#SVGID_00000142160520326954727020000002694088029307466886_);}
	.st15{fill:url(#SVGID_00000088113064545183324950000000289964445267543224_);}
	.st16{fill:url(#SVGID_00000055697726790064726510000012110383380765812382_);}
	.st17{fill:url(#SVGID_00000049182827353722652990000007455527784654081436_);}
	.st18{fill:url(#SVGID_00000156569602332731030150000010374992883954630811_);}
	.st19{fill:url(#SVGID_00000018199452407789115440000001731681881094489248_);}
	.st20{fill:url(#SVGID_00000056416753386734146590000010908040964995624064_);}
	.st21{fill:url(#SVGID_00000106120272248806120990000000574647877772395669_);}
	.st22{fill:url(#SVGID_00000062191986912693896760000003116660707759489980_);}
	.st23{fill:url(#SVGID_00000090259350716392639200000014012078823513709751_);}
	.st24{fill:url(#SVGID_00000091010951128009801970000008168635218993110151_);}
	.st25{fill:url(#SVGID_00000181797126470776608590000010602326524730593201_);}
	.st26{fill:url(#SVGID_00000139270585089314970260000007297325760658347679_);}
	.st27{fill:url(#SVGID_00000141452806387415227880000017416417245296142983_);}
	.st28{fill:url(#SVGID_00000028317193012290519190000008531336006029057963_);}
	.st29{fill:url(#SVGID_00000083796935502233626580000014801131732838391986_);}
</style>
<g>
	<rect class="st8" width="1024" height="1024"/>
	<g>
		<g>
			<linearGradient id="SVGID_1_" gradientUnits="userSpaceOnUse" x1="380.0627" y1="671.1212" x2="841.4875" y2="205.9601">
				<stop  offset="0" style="stop-color:#265CFE"/>
				<stop  offset="1" style="stop-color:#21E3FF"/>
			</linearGradient>
			<path class="st1" d="M732.5,232.4v46.3c0,25.8-21,46.8-46.8,46.8s-46.8-21-46.8-46.8v-57.6h-22.4v57.6c0,25.8-21,46.8-46.8,46.8
				s-46.8-21-46.8-46.8v-57.6h-22.4v57.6c0,25.8-21,46.8-46.8,46.8c-25.8,0-46.8-21-46.8-46.8v-57.6h-20v57.6
				c0,25.8-21,46.8-46.8,46.8c-25.8,0-46.8-21-46.8-46.8v-46.9c-57.4,22.6-98.1,78.5-98.1,143.9v32c0,0,147.8,272.7,461.7,447.4
				h17.7c85.4,0,154.6-69.2,154.6-154.6V375.7C829,310.9,789.1,255.4,732.5,232.4z"/>
			
				<linearGradient id="SVGID_00000083067198070083113270000009637433332240784058_" gradientUnits="userSpaceOnUse" x1="144.4437" y1="437.3947" x2="605.8686" y2="-27.7663">
				<stop  offset="0" style="stop-color:#265CFE"/>
				<stop  offset="1" style="stop-color:#21E3FF"/>
			</linearGradient>
			<path style="fill:url(#SVGID_00000083067198070083113270000009637433332240784058_);" d="M339.9,311.8L339.9,311.8
				c18.3,0,33.1-14.8,33.1-33.1V202c0-18.3-14.8-33.1-33.1-33.1h0c-18.3,0-33.1,14.8-33.1,33.1v76.7
				C306.8,297,321.6,311.8,339.9,311.8z"/>
			
				<linearGradient id="SVGID_00000040561792746394890820000017906387552823557519_" gradientUnits="userSpaceOnUse" x1="201.7239" y1="494.2148" x2="663.1487" y2="29.0537">
				<stop  offset="0" style="stop-color:#265CFE"/>
				<stop  offset="1" style="stop-color:#21E3FF"/>
			</linearGradient>
			<path style="fill:url(#SVGID_00000040561792746394890820000017906387552823557519_);" d="M453.6,311.8L453.6,311.8
				c18.3,0,33.1-14.8,33.1-33.1V202c0-18.3-14.8-33.1-33.1-33.1h0c-18.3,0-33.1,14.8-33.1,33.1v76.7
				C420.4,297,435.3,311.8,453.6,311.8z"/>
			
				<linearGradient id="SVGID_00000047758307375483332890000009939235252052171139_" gradientUnits="userSpaceOnUse" x1="260.2202" y1="552.2413" x2="721.645" y2="87.0802">
				<stop  offset="0" style="stop-color:#265CFE"/>
				<stop  offset="1" style="stop-color:#21E3FF"/>
			</linearGradient>
			<path style="fill:url(#SVGID_00000047758307375483332890000009939235252052171139_);" d="M569.6,311.8L569.6,311.8
				c18.3,0,33.1-14.8,33.1-33.1V202c0-18.3-14.8-33.1-33.1-33.1h0c-18.3,0-33.1,14.8-33.1,33.1v76.7
				C536.5,297,551.3,311.8,569.6,311.8z"/>
			
				<linearGradient id="SVGID_00000015354189604285885730000008128425033382309515_" gradientUnits="userSpaceOnUse" x1="318.7165" y1="610.2678" x2="780.1414" y2="145.1067">
				<stop  offset="0" style="stop-color:#265CFE"/>
				<stop  offset="1" style="stop-color:#21E3FF"/>
			</linearGradient>
			<path style="fill:url(#SVGID_00000015354189604285885730000008128425033382309515_);" d="M685.7,311.8
				c18.3,0,33.1-14.8,33.1-33.1V202c0-18.3-14.8-33.1-33.1-33.1c-18.3,0-33.1,14.8-33.1,33.1v76.7
				C652.6,297,667.4,311.8,685.7,311.8z"/>
		</g>
		
			<linearGradient id="SVGID_00000052068856804547776340000013453709726507622040_" gradientUnits="userSpaceOnUse" x1="171.9365" y1="422.2127" x2="560.0378" y2="885.9727">
			<stop  offset="0" style="stop-color:#25A0FD"/>
			<stop  offset="0.2016" style="stop-color:#258FFD"/>
			<stop  offset="0.7256" style="stop-color:#2769FD"/>
			<stop  offset="1" style="stop-color:#275AFD"/>
		</linearGradient>
		<path style="fill:url(#SVGID_00000052068856804547776340000013453709726507622040_);" d="M656.7,855.1H482.2
			C195.7,715.4,195,487.9,195,485.7c0,0,0,0,0,0v-78C195,407.7,342.8,680.4,656.7,855.1z"/>
		
			<linearGradient id="SVGID_00000065793393179530567230000000086857410928044701_" gradientUnits="userSpaceOnUse" x1="201.1983" y1="807.8287" x2="298.1718" y2="710.8552">
			<stop  offset="0" style="stop-color:#5D7FFF"/>
			<stop  offset="1" style="stop-color:#5587F8"/>
		</linearGradient>
		<path style="fill:url(#SVGID_00000065793393179530567230000000086857410928044701_);" d="M482.2,855.1H349.6
			c-85.4,0-154.6-69.2-154.6-154.6V485.7C195,487.9,195.7,715.4,482.2,855.1z"/>
		<g>
			<path class="st0" d="M497.3,421.2h-59.5c-4.5,0-8.1,3.6-8.1,8.1v85.5H329.2c-3.8,0-6.8,3-6.8,6.8v14.9c0,3.8,3,6.8,6.8,6.8h100.4
				v95.8c0,4.5,3.6,8.1,8.1,8.1h59.5c4.5,0,8.1-3.6,8.1-8.1V429.3C505.3,424.9,501.7,421.2,497.3,421.2z"/>
			<path class="st0" d="M715,514.9H614.6v-85.5c0-4.5-3.6-8.1-8.1-8.1H547c-4.5,0-8.1,3.6-8.1,8.1v209.9c0,4.5,3.6,8.1,8.1,8.1h59.5
				c4.5,0,8.1-3.6,8.1-8.1v-95.8H715c3.8,0,6.8-3,6.8-6.8v-14.9C721.8,517.9,718.8,514.9,715,514.9z"/>
		</g>
	</g>
</g>
</svg>
